<?xml version="1.0" encoding="utf-8"?>
<!-- Generator: Adobe Illustrator 29.4.0, SVG Export Plug-In . SVG Version: 9.03 Build 0)  -->
<svg version="1.1" id="Layer_1" xmlns="http://www.w3.org/2000/svg" xmlns:xlink="http://www.w3.org/1999/xlink" x="0px" y="0px"
	 viewBox="0 0 459.31 159.33" style="enable-background:new 0 0 459.31 159.33;" xml:space="preserve">
<style type="text/css">
	.st0{fill:#14A1DC;}
	.st1{fill:#333333;}
	.st2{fill:#43C0BA;}
	.st3{fill:#595FAB;}
	.st4{fill:#EF3D4E;}
</style>
<g>
	<path class="st0" d="M56.03,12.75c-24.16,0-43.75,19.59-43.75,43.75s19.59,43.75,43.75,43.75s43.75-19.59,43.75-43.75
		S80.19,12.75,56.03,12.75z M56.03,79.14c-2.91,0-5.68-0.55-8.24-1.53l-8.08,3.91l0.14-9.08c-4.14-4.14-6.7-9.86-6.7-16.17
		c0-12.64,10.24-22.88,22.88-22.88S78.9,43.62,78.9,56.26C78.9,68.9,68.66,79.14,56.03,79.14z"/>
</g>
<g>
	<path class="st1" d="M33.43,111.78h9.37v34.81h-9.37v-13.09H21.64v13.09h-9.37v-34.81h9.37v13.7h11.79V111.78z"/>
	<path class="st1" d="M72.07,146.59l-1.96-5.17H57.07l-1.86,5.17H45.09l13.89-34.81h9.18l13.98,34.81H72.07z M59.86,133.68h7.27
		l-3.73-9.74L59.86,133.68z"/>
	<path class="st1" d="M84.43,146.59v-34.86h9.37v27.08h10.58v7.78H84.43z"/>
	<path class="st1" d="M105.49,129.16c0-10.72,7.41-17.85,18.41-17.85c10.95,0,18.41,7.13,18.41,17.85
		c0,10.72-7.46,17.89-18.41,17.89C112.9,147.05,105.49,139.88,105.49,129.16z M132.52,129.16c0-5.41-3.36-9.13-8.62-9.13
		c-5.17,0-8.62,3.73-8.62,9.13c0,5.41,3.45,9.09,8.62,9.09C129.16,138.24,132.52,134.56,132.52,129.16z"/>
	<path class="st1" d="M155.83,129.16c0-10.72,7.46-17.85,17.71-17.85c5.83,0,9.88,1.82,12.49,4.61l-4.71,6.57
		c-1.77-1.35-3.77-2.47-6.62-2.47c-5.36,0-9.09,3.63-9.09,9.13c0,5.41,3.73,9.04,9.09,9.04c2.75,0,5.08-0.98,6.76-2.38l4.47,6.71
		c-2.61,2.7-6.57,4.47-12.4,4.47C163.28,147.01,155.83,139.88,155.83,129.16z"/>
	<path class="st1" d="M188.17,129.16c0-10.72,7.41-17.85,18.41-17.85c10.95,0,18.41,7.13,18.41,17.85
		c0,10.72-7.46,17.89-18.41,17.89C195.58,147.05,188.17,139.88,188.17,129.16z M215.2,129.16c0-5.41-3.36-9.13-8.62-9.13
		c-5.17,0-8.62,3.73-8.62,9.13c0,5.41,3.45,9.09,8.62,9.09C211.84,138.24,215.2,134.56,215.2,129.16z"/>
	<path class="st1" d="M257.57,111.78h8.9v34.81h-8.9v-18.22l-7.04,18.22h-6.01l-7.32-18.73v18.73h-8.25v-34.81h9.04l9.65,24.19
		L257.57,111.78z"/>
	<path class="st1" d="M300.21,111.78h8.9v34.81h-8.9v-18.22l-7.04,18.22h-6.01l-7.32-18.73v18.73h-8.25v-34.81h9.04l9.65,24.19
		L300.21,111.78z"/>
	<path class="st1" d="M313.78,134.05v-22.28h9.37v22.28c0.05,2.75,1.35,4.19,3.87,4.19c2.7,0,4.38-1.49,4.38-4.19v-22.28h9.09v22.28
		c0,7.83-5.64,13-13.47,13C319.32,147.05,313.92,141.88,313.78,134.05z"/>
	<path class="st1" d="M366.21,111.78h8.62v34.81h-10.02l-11.09-20.04v20.04h-8.48v-34.81h9.51l11.46,19.57V111.78z"/>
	<path class="st1" d="M380.05,146.59v-34.86h9.37v34.86H380.05z"/>
	<path class="st1" d="M399.44,146.63v-26.56h-7.46v-8.29h24.23v8.29h-7.5v26.56H399.44z"/>
	<path class="st1" d="M447.02,111.78l-11.23,18.5v16.31h-9.04v-16.31l-11.37-18.5h11.09l5.22,9.09l5.31-9.09H447.02z"/>
</g>
<rect x="83.46" y="49.28" class="st0" width="60.57" height="13.18"/>
<g>
	<path class="st2" d="M171.78,12.74c-24.16,0-43.75,19.59-43.75,43.75s19.59,43.75,43.75,43.75s43.75-19.59,43.75-43.75
		S195.94,12.74,171.78,12.74z M171.78,79.14c-2.91,0-5.68-0.55-8.24-1.53l-8.08,3.91l0.14-9.08c-4.14-4.14-6.7-9.86-6.7-16.17
		c0-12.64,10.24-22.88,22.88-22.88s22.88,10.24,22.88,22.88C194.65,68.9,184.41,79.14,171.78,79.14z"/>
</g>
<rect x="198.09" y="49.28" class="st2" width="60.57" height="13.18"/>
<g>
	<path class="st3" d="M287.53,14.64c-24.16,0-43.75,19.59-43.75,43.75s19.59,43.75,43.75,43.75c24.16,0,43.75-19.59,43.75-43.75
		S311.69,14.64,287.53,14.64z M287.53,81.04c-2.91,0-5.68-0.55-8.24-1.53l-8.08,3.91l0.14-9.08c-4.14-4.14-6.7-9.86-6.7-16.17
		c0-12.64,10.24-22.88,22.88-22.88c12.64,0,22.88,10.24,22.88,22.88C310.4,70.8,300.16,81.04,287.53,81.04z"/>
</g>
<rect x="315.67" y="49.28" class="st3" width="60.57" height="13.18"/>
<g>
	<path class="st4" d="M403.28,13.44c-24.16,0-43.75,19.27-43.75,43.05s19.59,43.05,43.75,43.05c24.16,0,43.75-19.27,43.75-43.05
		S427.44,13.44,403.28,13.44z M403.28,78.78c-2.91,0-5.68-0.54-8.24-1.51l-8.08,3.84l0.14-8.94c-4.14-4.07-6.7-9.7-6.7-15.92
		c0-12.44,10.24-22.51,22.88-22.51c12.64,0,22.88,10.08,22.88,22.51C426.15,68.71,415.91,78.78,403.28,78.78z"/>
</g>
</svg>
